<svg width="30" height="31" viewBox="0 0 30 31" fill="none" xmlns="http://www.w3.org/2000/svg">
<path d="M13.6492 16.6138V16.4638H13.4992H8.08507C7.6713 16.4638 7.32907 16.3203 7.09082 16.0856C6.85264 15.8509 6.71019 15.5172 6.71019 15.121C6.71019 14.7071 6.85377 14.3609 7.0924 14.1187C7.33084 13.8767 7.6725 13.7301 8.08507 13.7301H13.4992H13.6492V13.5801V8.182C13.6492 7.76823 13.7927 7.426 14.0274 7.18775C14.262 6.94956 14.5958 6.80712 14.992 6.80712C15.4069 6.80712 15.753 6.94739 15.9946 7.1837C16.2359 7.41963 16.3829 7.76085 16.3829 8.182V13.5801V13.7301H16.5329H21.947C22.7439 13.7301 23.3059 14.3018 23.3059 15.121C23.3059 15.9039 22.7481 16.4638 21.947 16.4638H16.5329H16.3829V16.6138V22.0279C16.3829 22.4405 16.2362 22.7821 15.9942 23.0206C15.752 23.2592 15.4058 23.4028 14.992 23.4028C14.5958 23.4028 14.262 23.2603 14.0274 23.0222C13.7927 22.7839 13.6492 22.4417 13.6492 22.0279V16.6138ZM24.7191 29.979H5.2809C3.57185 29.979 2.29549 29.5362 1.44587 28.6942C0.596489 27.8525 0.15 26.5886 0.15 24.8963V5.36177C0.15 3.66129 0.596576 2.39749 1.44575 1.55793C2.29522 0.718066 3.57151 0.279028 5.2809 0.279028H24.7191C26.4363 0.279028 27.7125 0.721985 28.56 1.56371C29.4073 2.40526 29.85 3.66914 29.85 5.36177V24.8963C29.85 26.5889 29.4073 27.8528 28.56 28.6944C27.7125 29.5361 26.4363 29.979 24.7191 29.979ZM3.04422 24.6074C3.04422 25.4109 3.25576 26.0369 3.68233 26.4613C4.10875 26.8855 4.72649 27.0848 5.48957 27.0848H24.5104C25.2659 27.0848 25.8832 26.8853 26.3114 26.4616C26.7398 26.0375 26.9558 25.4117 26.9558 24.6074V5.6507C26.9558 4.84638 26.7398 4.22054 26.3114 3.79649C25.8832 3.37274 25.2659 3.17325 24.5104 3.17325H5.48957C4.72649 3.17325 4.10875 3.37255 3.68233 3.79677C3.25576 4.22114 3.04422 4.84714 3.04422 5.6507V24.6074Z" fill="black" stroke="black" stroke-width="0.3"/>
</svg>
