<svg width="45" height="57" viewBox="0 0 45 57" fill="none" xmlns="http://www.w3.org/2000/svg">
<path d="M0.40319 31.6917C0.403187 43.6955 10.2369 53.3545 22.453 53.3545C34.6645 53.3545 44.4779 43.6955 44.4779 31.6917C44.4779 30.2679 43.4613 29.2547 42.0123 29.2547C40.6082 29.2547 39.6566 30.2679 39.6566 31.6917C39.6566 41.0738 31.9975 48.61 22.453 48.61C12.9039 48.61 5.23783 41.0737 5.23784 31.6917C5.23784 22.2598 12.8418 14.7652 22.3774 14.7652C23.9908 14.7652 25.503 14.8887 26.7679 15.1667L20.0425 21.6942C19.6146 22.1383 19.3639 22.6749 19.3639 23.3054C19.3639 24.6329 20.3894 25.6352 21.7221 25.6352C22.4277 25.6352 22.9899 25.4108 23.4065 24.9778L33.5421 14.9565C34.0662 14.462 34.288 13.8818 34.288 13.2115C34.288 12.5741 34.0258 11.9411 33.5421 11.4708L23.4065 1.36999C22.9855 0.908419 22.4075 0.679815 21.7221 0.679815C20.3895 0.679815 19.3639 1.73033 19.3639 3.06223C19.3639 3.69284 19.6146 4.22947 20.0222 4.6736L25.9911 10.4542C24.8988 10.2512 23.6562 10.1122 22.3774 10.1122C10.1747 10.1122 0.403193 19.6991 0.40319 31.6917Z" fill="black"/>
</svg>
