<svg width="14" height="14" viewBox="0 0 14 14" fill="none" xmlns="http://www.w3.org/2000/svg">
<path d="M13.3614 12.8258C13.3614 13.3781 12.9137 13.8258 12.3614 13.8258L1.42422 13.8258C0.871934 13.8258 0.424219 13.3781 0.424219 12.8258C0.424219 12.2735 0.871934 11.8258 1.42422 11.8258L12.3614 11.8258C12.9137 11.8258 13.3614 12.2735 13.3614 12.8258Z" fill="black"/>
<path d="M13.3614 6.94531C13.3614 7.4976 12.9137 7.94531 12.3614 7.94531L1.42422 7.94531C0.871934 7.94531 0.424219 7.4976 0.424219 6.94531C0.424219 6.39303 0.871934 5.94531 1.42422 5.94531L12.3614 5.94531C12.9137 5.94531 13.3614 6.39303 13.3614 6.94531Z" fill="black"/>
<path d="M13.3614 1.0647C13.3614 1.61698 12.9137 2.0647 12.3614 2.0647L1.42422 2.0647C0.871934 2.0647 0.424219 1.61698 0.424219 1.0647C0.424219 0.512412 0.871934 0.0646973 1.42422 0.0646973L12.3614 0.0646973C12.9137 0.0646973 13.3614 0.512412 13.3614 1.0647Z" fill="black"/>
</svg>
